<svg width="832.5" height="82.48" viewBox="0 0 832.5 82.48" xmlns="http://www.w3.org/2000/svg" xmlns:xlink="http://www.w3.org/1999/xlink" overflow="hidden"><defs></defs><g><path d="M42.93 0.73 42.93 12.63 15.56 12.63 15.56 29.57 38.35 29.57 38.35 41.47 15.56 41.47 15.56 67.42 0 67.42 0 0.73 42.93 0.73Z" fill="#2B036B"/><path d="M116.81 34.05C116.81 38.87 115.98 43.36 114.32 47.51 112.66 51.66 110.31 55.27 107.29 58.34 104.27 61.41 100.63 63.81 96.37 65.55 92.11 67.29 87.39 68.16 82.2 68.16 77.01 68.16 72.28 67.29 68.01 65.55 63.74 63.81 60.08 61.41 57.05 58.34 54.01 55.27 51.66 51.67 50 47.51 48.34 43.36 47.51 38.87 47.51 34.05 47.51 29.23 48.34 24.74 50 20.59 51.66 16.44 54.01 12.84 57.05 9.79 60.09 6.74 63.74 4.34 68.01 2.6 72.29 0.87 77.02 0 82.21 0 87.4 0 92.12 0.88 96.38 2.63 100.64 4.38 104.28 6.79 107.3 9.84 110.32 12.89 112.66 16.49 114.33 20.64 115.98 24.79 116.81 29.26 116.81 34.05ZM100.97 34.05C100.97 30.75 100.54 27.79 99.69 25.15 98.84 22.51 97.61 20.28 96.01 18.44 94.41 16.61 92.45 15.21 90.13 14.23 87.81 13.25 85.17 12.77 82.21 12.77 79.22 12.77 76.56 13.26 74.22 14.23 71.89 15.21 69.92 16.61 68.32 18.44 66.72 20.27 65.49 22.51 64.64 25.15 63.78 27.79 63.36 30.76 63.36 34.05 63.36 37.38 63.79 40.36 64.64 43 65.49 45.64 66.72 47.87 68.32 49.71 69.92 51.54 71.89 52.94 74.22 53.9 76.56 54.86 79.22 55.34 82.21 55.34 85.17 55.34 87.81 54.86 90.13 53.9 92.45 52.94 94.41 51.54 96.01 49.71 97.61 47.88 98.84 45.64 99.69 43 100.55 40.36 100.97 37.38 100.97 34.05Z" fill="#2B036B"/><path d="M190.05 34.05C190.05 38.87 189.22 43.36 187.55 47.51 185.89 51.66 183.55 55.27 180.52 58.34 177.5 61.41 173.86 63.81 169.6 65.55 165.34 67.29 160.62 68.16 155.43 68.16 150.24 68.16 145.51 67.29 141.24 65.55 136.97 63.81 133.31 61.41 130.28 58.34 127.24 55.27 124.89 51.67 123.23 47.51 121.57 43.36 120.73 38.87 120.73 34.05 120.73 29.23 121.56 24.74 123.23 20.59 124.89 16.44 127.24 12.84 130.28 9.79 133.32 6.74 136.97 4.34 141.24 2.6 145.51 0.86 150.24-0.01 155.43-0.01 160.62-0.01 165.34 0.87 169.6 2.62 173.86 4.37 177.5 6.78 180.52 9.83 183.54 12.88 185.88 16.48 187.55 20.63 189.21 24.79 190.05 29.26 190.05 34.05ZM174.21 34.05C174.21 30.75 173.78 27.79 172.93 25.15 172.08 22.51 170.85 20.28 169.25 18.44 167.65 16.61 165.69 15.21 163.37 14.23 161.05 13.25 158.41 12.77 155.45 12.77 152.46 12.77 149.8 13.26 147.46 14.23 145.13 15.21 143.16 16.61 141.56 18.44 139.96 20.27 138.73 22.51 137.88 25.15 137.03 27.79 136.6 30.76 136.6 34.05 136.6 37.38 137.03 40.36 137.88 43 138.73 45.64 139.96 47.87 141.56 49.71 143.16 51.54 145.13 52.94 147.46 53.9 149.79 54.86 152.46 55.34 155.45 55.34 158.41 55.34 161.05 54.86 163.37 53.9 165.69 52.94 167.65 51.54 169.25 49.71 170.85 47.88 172.08 45.64 172.93 43 173.78 40.36 174.21 37.38 174.21 34.05Z" fill="#2B036B"/><path d="M243.14 0.73 243.14 13 224.37 13 224.37 67.42 208.9 67.42 208.9 13 190.13 13 190.13 0.73 243.14 0.73Z" fill="#2B036B"/><path d="M265.02 27.74 267.49 27.74C269.78 27.74 271.43 27.02 272.43 25.59L287.45 3.8C288.27 2.61 289.21 1.8 290.26 1.37 291.31 0.94 292.6 0.73 294.13 0.73L307.59 0.73 287.82 27.69C287.12 28.67 286.38 29.48 285.62 30.12 284.86 30.76 284.08 31.3 283.29 31.72 284.45 32.15 285.51 32.74 286.47 33.48 287.43 34.23 288.31 35.23 289.1 36.48L309.24 67.42 295.42 67.42C294.53 67.42 293.78 67.36 293.15 67.24 292.52 67.12 291.98 66.94 291.52 66.69 291.06 66.45 290.67 66.15 290.33 65.8 289.99 65.45 289.67 65.04 289.37 64.59L274.27 41.38C273.72 40.53 273.03 39.92 272.19 39.57 271.35 39.22 270.21 39.04 268.78 39.04L265.03 39.04 265.03 67.42 249.56 67.42 249.56 0.73 265.03 0.73 265.03 27.74Z" fill="#2B036B"/><path d="M376.98 67.42 364.99 67.42C363.65 67.42 362.54 67.11 361.67 66.48 360.8 65.85 360.2 65.05 359.86 64.08L355.92 52.45 330.56 52.45 326.62 64.08C326.32 64.93 325.72 65.71 324.83 66.39 323.94 67.07 322.86 67.42 321.58 67.42L309.5 67.42 335.32 0.73 351.16 0.73 376.98 67.42ZM334.13 41.93 352.35 41.93 346.22 23.67C345.82 22.51 345.36 21.15 344.82 19.57 344.29 18 343.76 16.3 343.24 14.47 342.75 16.33 342.25 18.06 341.73 19.64 341.21 21.23 340.72 22.6 340.27 23.76L334.13 41.93Z" fill="#2B036B"/><path d="M444.45 67.42 432.46 67.42C431.12 67.42 430.01 67.11 429.14 66.48 428.27 65.85 427.67 65.05 427.33 64.08L423.39 52.45 398.03 52.45 394.09 64.08C393.79 64.93 393.19 65.71 392.3 66.39 391.41 67.07 390.33 67.42 389.05 67.42L376.97 67.42 402.79 0.73 418.63 0.73 444.45 67.42ZM401.6 41.93 419.82 41.93 413.69 23.67C413.29 22.51 412.83 21.15 412.29 19.57 411.76 18 411.23 16.3 410.71 14.47 410.22 16.33 409.72 18.06 409.2 19.64 408.68 21.23 408.19 22.6 407.74 23.76L401.6 41.93Z" fill="#2B036B"/><path d="M490.95 0.73 490.95 13 472.18 13 472.18 67.42 456.71 67.42 456.71 13 437.94 13 437.94 0.73 490.95 0.73Z" fill="#2B036B"/><path d="M557.96 0.73 557.96 12.63 530.59 12.63 530.59 28.2 551.55 28.2 551.55 39.64 530.59 39.64 530.59 55.52 557.96 55.52 557.96 67.42 515.03 67.42 515.03 0.73 557.96 0.73Z" fill="#2B036B"/><path d="M578.1 42.89 562.81 19.96 576.45 19.96C577.46 19.96 578.2 20.09 578.67 20.35 579.14 20.61 579.56 21.04 579.93 21.65L588.4 35.7C588.58 35.15 588.81 34.62 589.09 34.1 589.37 33.58 589.67 33.03 590.01 32.45L596.05 21.88C596.45 21.18 596.89 20.68 597.38 20.39 597.87 20.1 598.46 19.96 599.17 19.96L612.17 19.96 596.88 42.25 612.81 67.42 599.17 67.42C598.16 67.42 597.35 67.18 596.74 66.69 596.13 66.2 595.63 65.62 595.23 64.95L586.76 50.39C586.61 50.91 586.42 51.4 586.21 51.85 586 52.31 585.77 52.74 585.52 53.13L578.56 64.94C578.19 65.58 577.71 66.15 577.1 66.66 576.49 67.17 575.73 67.42 574.81 67.42L562.18 67.42 578.1 42.89Z" fill="#2B036B"/><path d="M619.2 82.48 619.2 19.96 627.99 19.96C628.87 19.96 629.62 20.16 630.21 20.55 630.8 20.95 631.22 21.54 631.47 22.34L632.52 25.82C633.44 24.81 634.42 23.9 635.47 23.07 636.52 22.25 637.65 21.54 638.86 20.94 640.07 20.35 641.36 19.88 642.75 19.54 644.14 19.2 645.66 19.04 647.3 19.04 649.77 19.04 652.06 19.59 654.17 20.69 656.28 21.79 658.09 23.38 659.62 25.45 661.15 27.53 662.34 30.07 663.21 33.07 664.08 36.08 664.51 39.49 664.51 43.3 664.51 46.87 664.01 50.17 663.02 53.19 662.03 56.21 660.64 58.84 658.85 61.06 657.06 63.29 654.93 65.03 652.44 66.28 649.95 67.53 647.2 68.16 644.18 68.16 641.71 68.16 639.63 67.81 637.96 67.11 636.28 66.41 634.76 65.46 633.38 64.27L633.38 82.49 619.2 82.49ZM642.36 29.89C641.32 29.89 640.38 29.99 639.55 30.19 638.71 30.39 637.93 30.67 637.22 31.04 636.51 31.41 635.84 31.87 635.23 32.44 634.62 33.01 634.01 33.65 633.4 34.39L633.4 54.53C634.47 55.72 635.63 56.55 636.88 57.02 638.13 57.49 639.44 57.73 640.82 57.73 642.13 57.73 643.34 57.47 644.44 56.95 645.54 56.43 646.49 55.6 647.3 54.46 648.11 53.32 648.74 51.83 649.2 50 649.66 48.17 649.89 45.94 649.89 43.32 649.89 40.82 649.71 38.71 649.34 37 648.97 35.29 648.46 33.91 647.81 32.86 647.16 31.81 646.37 31.05 645.45 30.59 644.52 30.12 643.49 29.89 642.36 29.89Z" fill="#2B036B"/><path d="M672.12 67.42 672.12 19.96 680.54 19.96C681.24 19.96 681.83 20.02 682.3 20.14 682.77 20.26 683.17 20.45 683.49 20.71 683.81 20.97 684.05 21.31 684.22 21.74 684.39 22.17 684.53 22.69 684.65 23.3L685.43 27.74C687.17 25.05 689.12 22.93 691.29 21.38 693.46 19.83 695.82 19.05 698.38 19.05 700.55 19.05 702.29 19.57 703.6 20.61L701.77 31.05C701.65 31.69 701.4 32.14 701.04 32.4 700.68 32.66 700.19 32.79 699.58 32.79 699.06 32.79 698.45 32.72 697.75 32.58 697.05 32.44 696.16 32.37 695.1 32.37 691.38 32.37 688.45 34.35 686.31 38.32L686.31 67.43 672.12 67.43Z" fill="#2B036B"/><path d="M730.25 19.22C733.39 19.22 736.27 19.71 738.88 20.68 741.49 21.66 743.73 23.08 745.61 24.94 747.49 26.8 748.95 29.08 750 31.78 751.05 34.48 751.58 37.54 751.58 40.96 751.58 42.03 751.53 42.9 751.44 43.57 751.35 44.24 751.18 44.78 750.94 45.17 750.69 45.57 750.37 45.84 749.96 45.99 749.55 46.14 749.02 46.22 748.38 46.22L721 46.22C721.46 50.19 722.66 53.06 724.62 54.85 726.57 56.64 729.09 57.53 732.17 57.53 733.82 57.53 735.24 57.33 736.43 56.93 737.62 56.53 738.68 56.09 739.61 55.6 740.54 55.11 741.4 54.67 742.17 54.27 742.95 53.87 743.76 53.67 744.62 53.67 745.75 53.67 746.6 54.08 747.18 54.91L751.3 59.99C749.84 61.67 748.26 63.03 746.56 64.09 744.87 65.14 743.13 65.97 741.34 66.56 739.55 67.15 737.77 67.57 735.98 67.8 734.2 68.03 732.49 68.14 730.88 68.14 727.55 68.14 724.43 67.6 721.52 66.51 718.61 65.42 716.06 63.82 713.88 61.68 711.7 59.54 709.97 56.89 708.71 53.72 707.44 50.55 706.81 46.85 706.81 42.64 706.81 39.47 707.35 36.46 708.44 33.62 709.53 30.78 711.08 28.3 713.11 26.16 715.14 24.02 717.6 22.33 720.48 21.08 723.36 19.85 726.61 19.22 730.25 19.22ZM730.52 29.02C727.8 29.02 725.68 29.79 724.16 31.33 722.63 32.87 721.63 35.09 721.14 37.99L738.85 37.99C738.85 36.86 738.7 35.76 738.42 34.69 738.13 33.62 737.66 32.67 737 31.83 736.34 30.99 735.48 30.31 734.41 29.79 733.34 29.28 732.05 29.02 730.52 29.02Z" fill="#2B036B"/><path d="M788.75 30.35C788.38 30.93 788 31.34 787.59 31.59 787.18 31.83 786.65 31.96 786.01 31.96 785.34 31.96 784.67 31.82 784 31.53 783.33 31.24 782.61 30.93 781.83 30.59 781.05 30.25 780.18 29.94 779.2 29.65 778.23 29.36 777.11 29.22 775.87 29.22 774.07 29.22 772.7 29.56 771.74 30.25 770.78 30.94 770.3 31.89 770.3 33.11 770.3 34 770.61 34.73 771.24 35.31 771.87 35.89 772.69 36.4 773.73 36.84 774.76 37.28 775.94 37.7 777.25 38.1 778.56 38.5 779.9 38.94 781.27 39.43 782.64 39.92 783.98 40.49 785.29 41.15 786.6 41.81 787.77 42.61 788.81 43.58 789.85 44.54 790.67 45.71 791.3 47.08 791.93 48.45 792.24 50.1 792.24 52.02 792.24 54.37 791.81 56.54 790.96 58.52 790.11 60.5 788.83 62.21 787.14 63.65 785.45 65.09 783.36 66.2 780.87 66.99 778.38 67.78 775.52 68.18 772.29 68.18 770.67 68.18 769.06 68.03 767.44 67.72 765.82 67.42 764.26 67 762.75 66.48 761.24 65.96 759.84 65.34 758.56 64.63 757.28 63.91 756.18 63.14 755.26 62.32L758.56 57.1C758.96 56.49 759.43 56.01 759.98 55.66 760.53 55.31 761.25 55.13 762.13 55.13 762.95 55.13 763.69 55.31 764.35 55.68 765.01 56.05 765.72 56.44 766.48 56.87 767.24 57.3 768.13 57.69 769.16 58.06 770.19 58.43 771.47 58.61 773.03 58.61 774.13 58.61 775.06 58.5 775.82 58.27 776.58 58.04 777.19 57.73 777.65 57.33 778.11 56.93 778.44 56.49 778.66 56 778.87 55.51 778.98 55.01 778.98 54.49 778.98 53.54 778.66 52.77 778.02 52.16 777.38 51.55 776.54 51.02 775.5 50.58 774.46 50.14 773.28 49.73 771.95 49.34 770.62 48.96 769.27 48.52 767.9 48.04 766.53 47.55 765.18 46.96 763.85 46.28 762.52 45.59 761.34 44.72 760.3 43.67 759.26 42.62 758.42 41.33 757.78 39.8 757.14 38.27 756.82 36.43 756.82 34.26 756.82 32.25 757.21 30.33 757.99 28.52 758.77 26.7 759.94 25.11 761.49 23.74 763.05 22.37 765 21.28 767.35 20.47 769.7 19.66 772.45 19.26 775.59 19.26 777.3 19.26 778.95 19.41 780.56 19.72 782.16 20.03 783.66 20.45 785.07 21 786.47 21.55 787.75 22.2 788.91 22.95 790.07 23.7 791.09 24.51 791.98 25.4L788.75 30.35Z" fill="#2B036B"/><path d="M829.03 30.35C828.66 30.93 828.28 31.34 827.87 31.59 827.46 31.83 826.93 31.96 826.29 31.96 825.62 31.96 824.95 31.82 824.28 31.53 823.61 31.24 822.89 30.93 822.11 30.59 821.33 30.25 820.46 29.94 819.48 29.65 818.51 29.36 817.39 29.22 816.15 29.22 814.35 29.22 812.98 29.56 812.02 30.25 811.06 30.94 810.58 31.89 810.58 33.11 810.58 34 810.89 34.73 811.52 35.31 812.15 35.89 812.97 36.4 814.01 36.84 815.04 37.28 816.22 37.7 817.53 38.1 818.84 38.5 820.18 38.94 821.55 39.43 822.92 39.92 824.26 40.49 825.57 41.15 826.88 41.81 828.05 42.61 829.09 43.58 830.13 44.54 830.95 45.71 831.58 47.08 832.21 48.45 832.52 50.1 832.52 52.02 832.52 54.37 832.09 56.54 831.24 58.52 830.39 60.5 829.11 62.21 827.42 63.65 825.73 65.09 823.64 66.2 821.15 66.99 818.66 67.78 815.8 68.18 812.57 68.18 810.95 68.18 809.34 68.03 807.72 67.72 806.1 67.42 804.54 67 803.03 66.48 801.52 65.96 800.12 65.34 798.84 64.63 797.56 63.91 796.46 63.14 795.54 62.32L798.84 57.1C799.24 56.49 799.71 56.01 800.26 55.66 800.81 55.31 801.53 55.13 802.41 55.13 803.23 55.13 803.97 55.31 804.63 55.68 805.29 56.05 806 56.44 806.76 56.87 807.52 57.3 808.41 57.69 809.44 58.06 810.47 58.43 811.75 58.61 813.31 58.61 814.41 58.61 815.34 58.5 816.1 58.27 816.86 58.04 817.47 57.73 817.93 57.33 818.39 56.93 818.72 56.49 818.94 56 819.15 55.51 819.26 55.01 819.26 54.49 819.26 53.54 818.94 52.77 818.3 52.16 817.66 51.55 816.82 51.02 815.78 50.58 814.74 50.14 813.56 49.73 812.23 49.34 810.9 48.96 809.55 48.52 808.18 48.04 806.81 47.55 805.46 46.96 804.13 46.28 802.8 45.59 801.62 44.72 800.58 43.67 799.54 42.62 798.7 41.33 798.06 39.8 797.42 38.27 797.1 36.43 797.1 34.26 797.1 32.25 797.49 30.33 798.27 28.52 799.05 26.7 800.22 25.11 801.77 23.74 803.33 22.37 805.28 21.28 807.63 20.47 809.98 19.66 812.73 19.26 815.87 19.26 817.58 19.26 819.23 19.41 820.84 19.72 822.44 20.03 823.94 20.45 825.35 21 826.75 21.55 828.03 22.2 829.19 22.95 830.35 23.7 831.37 24.51 832.26 25.4L829.03 30.35Z" fill="#2B036B"/></g></svg>