<svg width="209.63" height="66.69" viewBox="0 0 209.63 66.69" xmlns="http://www.w3.org/2000/svg" xmlns:xlink="http://www.w3.org/1999/xlink" overflow="hidden"><defs></defs><g><path d="M15.56 66.69 0 66.69 0 0 15.56 0 15.56 66.69Z" fill="#6D6C6D"/><path d="M88.43 33.32C88.43 38.14 87.6 42.59 85.94 46.66 84.28 50.73 81.93 54.26 78.91 57.23 75.89 60.21 72.25 62.52 67.99 64.19 63.73 65.85 59.01 66.68 53.82 66.68L27.92 66.68 27.92 0 53.83 0C59.02 0 63.74 0.84 68 2.52 72.26 4.2 75.9 6.52 78.92 9.48 81.94 12.44 84.28 15.96 85.95 20.03 87.6 24.1 88.43 28.53 88.43 33.32ZM72.59 33.32C72.59 30.02 72.16 27.05 71.31 24.39 70.46 21.74 69.23 19.49 67.63 17.64 66.03 15.79 64.07 14.37 61.75 13.38 59.43 12.39 56.79 11.89 53.83 11.89L43.48 11.89 43.48 54.78 53.82 54.78C56.78 54.78 59.42 54.28 61.74 53.29 64.06 52.3 66.02 50.88 67.62 49.03 69.22 47.18 70.45 44.93 71.3 42.28 72.17 39.64 72.59 36.65 72.59 33.32Z" fill="#6D6C6D"/><path d="M138.78 0 138.78 11.9 111.41 11.9 111.41 27.46 132.37 27.46 132.37 38.9 111.41 38.9 111.41 54.78 138.78 54.78 138.78 66.68 95.85 66.68 95.85 0 138.78 0Z" fill="#6D6C6D"/><path d="M209.63 66.69 197.64 66.69C196.3 66.69 195.19 66.38 194.32 65.75 193.45 65.12 192.85 64.32 192.51 63.35L188.57 51.72 163.21 51.72 159.27 63.35C158.97 64.2 158.37 64.98 157.48 65.66 156.59 66.34 155.51 66.69 154.23 66.69L142.15 66.69 167.98 0 183.82 0 209.63 66.69ZM166.79 41.2 185.01 41.2 178.88 22.94C178.48 21.78 178.02 20.42 177.48 18.84 176.95 17.27 176.42 15.57 175.9 13.74 175.41 15.6 174.91 17.33 174.39 18.91 173.87 20.5 173.38 21.87 172.93 23.03L166.79 41.2Z" fill="#6D6C6D"/></g></svg>