<svg width="568.29" height="85.06" viewBox="0 0 568.29 85.06" xmlns="http://www.w3.org/2000/svg" xmlns:xlink="http://www.w3.org/1999/xlink" overflow="hidden"><defs></defs><g><g><path d="M37.94 7.96C41.21 7.96 44.31 8.33 47.25 9.07 50.18 9.81 52.75 10.94 54.94 12.45 57.13 13.96 58.88 15.91 60.18 18.3 61.48 20.69 62.13 23.5 62.13 26.72 62.13 31.29 60.83 35.26 58.23 38.62 55.63 41.98 51.77 44.14 46.64 45.08L46.64 45.28C49.24 45.62 51.39 46.24 53.1 47.15 54.81 48.06 56.2 49.22 57.28 50.63 58.36 52.04 59.14 53.67 59.62 55.52 60.1 57.37 60.42 59.37 60.57 61.52 60.64 62.73 60.72 64.21 60.79 65.96 60.86 67.71 61.01 69.48 61.24 71.26 61.46 73.04 61.81 74.72 62.3 76.3 62.78 77.88 63.43 79.11 64.25 79.98L55.89 79.98C55.44 79.31 55.09 78.48 54.83 77.51 54.57 76.54 54.38 75.53 54.27 74.48 54.16 73.44 54.06 72.41 53.99 71.4 53.92 70.39 53.84 69.52 53.77 68.78 53.62 66.22 53.38 63.69 53.05 61.16 52.72 58.64 52.01 56.39 50.93 54.4 49.85 52.42 48.29 50.82 46.25 49.61 44.21 48.4 41.4 47.86 37.84 48L9.08 48 9.08 79.98 1.5 79.98 1.5 7.96 37.94 7.96ZM37.38 42.16C39.68 42.16 41.87 41.84 43.95 41.2 46.03 40.56 47.85 39.64 49.41 38.43 50.97 37.22 52.21 35.76 53.14 34.04 54.07 32.32 54.53 30.36 54.53 28.14 54.53 23.7 53.12 20.2 50.29 17.65 47.47 15.09 43.16 13.82 37.36 13.82L9.08 13.82 9.08 42.17 37.38 42.17Z" stroke="#000000" stroke-width="3" stroke-miterlimit="10"/><path d="M71.37 49.32 99.23 49.32 99.23 55.17 71.37 55.17 71.37 49.32Z" stroke="#000000" stroke-width="3" stroke-miterlimit="10"/><path d="M118.4 7.96 118.4 74.14 162.98 74.14 162.98 79.99 110.83 79.99 110.83 7.96 118.4 7.96Z" stroke="#000000" stroke-width="3" stroke-miterlimit="10"/><path d="M313.64 79.99 312.64 66.87 312.42 66.87C311.08 69.43 309.43 71.63 307.46 73.48 305.49 75.33 303.32 76.84 300.94 78.02 298.56 79.2 296.02 80.05 293.31 80.59 290.6 81.13 287.79 81.4 284.9 81.4 278.66 81.4 273.18 80.37 268.46 78.32 263.74 76.27 259.82 73.53 256.7 70.1 253.58 66.67 251.24 62.7 249.68 58.2 248.12 53.69 247.34 48.95 247.34 43.98 247.34 39 248.12 34.26 249.68 29.76 251.24 25.26 253.58 21.27 256.7 17.81 259.82 14.35 263.74 11.59 268.46 9.54 273.18 7.49 278.66 6.46 284.9 6.46 289.06 6.46 293 6.96 296.71 7.97 300.42 8.98 303.73 10.49 306.63 12.51 309.53 14.53 311.98 17.02 313.98 19.98 315.99 22.94 317.36 26.4 318.1 30.37L310.52 30.37C310.3 28.29 309.53 26.18 308.24 24.06 306.94 21.94 305.19 20.01 303 18.26 300.81 16.51 298.19 15.08 295.14 13.97 292.09 12.86 288.68 12.31 284.89 12.31 279.61 12.31 275.08 13.22 271.29 15.03 267.5 16.85 264.4 19.25 261.99 22.24 259.57 25.23 257.79 28.61 256.64 32.38 255.49 36.15 254.91 40.01 254.91 43.98 254.91 47.88 255.48 51.73 256.64 55.53 257.79 59.33 259.57 62.73 261.99 65.72 264.4 68.71 267.51 71.12 271.29 72.93 275.08 74.75 279.61 75.65 284.89 75.65 289.27 75.65 293.19 74.99 296.65 73.68 300.1 72.37 303.02 70.54 305.4 68.18 307.78 65.83 309.56 63.04 310.75 59.81 311.94 56.58 312.49 53.05 312.42 49.22L285.34 49.22 285.34 43.37 319.11 43.37 319.11 79.99 313.64 79.99Z" stroke="#000000" stroke-width="3" stroke-miterlimit="10"/><path d="M338.71 7.96 338.71 79.99 331.13 79.99 331.13 7.96 338.71 7.96Z" stroke="#000000" stroke-width="3" stroke-miterlimit="10"/><path d="M357.66 65.57C359 68.06 360.84 70.04 363.18 71.52 365.52 73 368.29 74.06 371.48 74.7 374.67 75.34 378.09 75.66 381.73 75.66 383.81 75.66 386.08 75.39 388.53 74.85 390.98 74.31 393.27 73.46 395.38 72.28 397.5 71.1 399.26 69.59 400.67 67.74 402.08 65.89 402.79 63.65 402.79 61.03 402.79 59.01 402.29 57.26 401.29 55.78 400.29 54.3 398.99 53.06 397.39 52.05 395.79 51.04 394.03 50.22 392.1 49.58 390.17 48.94 388.27 48.42 386.42 48.02L368.7 44.09C366.4 43.55 364.15 42.88 361.96 42.07 359.77 41.26 357.85 40.19 356.22 38.84 354.58 37.5 353.27 35.85 352.26 33.9 351.26 31.95 350.76 29.56 350.76 26.74 350.76 24.99 351.13 22.94 351.87 20.59 352.61 18.24 354 16.02 356.05 13.93 358.09 11.85 360.9 10.08 364.46 8.63 368.03 7.18 372.6 6.46 378.17 6.46 382.11 6.46 385.86 6.93 389.42 7.87 392.99 8.81 396.11 10.22 398.78 12.11 401.45 13.99 403.59 16.33 405.19 19.12 406.79 21.91 407.59 25.16 407.59 28.86L400 28.86C399.85 26.1 399.16 23.7 397.94 21.65 396.71 19.6 395.12 17.88 393.15 16.51 391.18 15.13 388.92 14.09 386.35 13.38 383.79 12.67 381.09 12.32 378.27 12.32 375.67 12.32 373.16 12.57 370.75 13.08 368.34 13.58 366.22 14.39 364.4 15.5 362.58 16.61 361.11 18.07 360 19.89 358.89 21.71 358.33 23.96 358.33 26.65 358.33 28.33 358.64 29.79 359.28 31.04 359.91 32.29 360.78 33.34 361.9 34.22 363.01 35.09 364.3 35.8 365.75 36.34 367.2 36.88 368.74 37.32 370.37 37.65L389.76 41.99C392.58 42.66 395.24 43.49 397.73 44.46 400.22 45.44 402.41 46.65 404.3 48.09 406.19 49.54 407.68 51.3 408.76 53.39 409.84 55.48 410.38 58 410.38 60.96 410.38 61.77 410.29 62.84 410.1 64.19 409.91 65.54 409.47 66.96 408.76 68.48 408.05 69.99 407.05 71.52 405.75 73.07 404.45 74.62 402.67 76.01 400.4 77.26 398.13 78.51 395.33 79.51 391.99 80.29 388.65 81.06 384.64 81.45 379.96 81.45 375.28 81.45 370.93 80.96 366.92 79.99 362.91 79.02 359.49 77.52 356.67 75.5 353.85 73.48 351.67 70.89 350.15 67.73 348.63 64.57 347.98 60.77 348.2 56.33L355.78 56.33C355.69 59.99 356.32 63.08 357.66 65.57Z" stroke="#000000" stroke-width="3" stroke-miterlimit="10"/><path d="M473.77 7.96 473.77 13.81 446.02 13.81 446.02 79.99 438.44 79.99 438.44 13.81 410.8 13.81 410.8 7.96 473.77 7.96Z" stroke="#000000" stroke-width="3" stroke-miterlimit="10"/><path d="M486.26 7.96 486.26 79.99 478.68 79.99 478.68 7.96 486.26 7.96Z" stroke="#000000" stroke-width="3" stroke-miterlimit="10"/><path d="M554.62 22.34C553.1 20.16 551.24 18.32 549.05 16.84 546.86 15.36 544.44 14.23 541.81 13.46 539.17 12.69 536.41 12.3 533.51 12.3 528.23 12.3 523.7 13.21 519.91 15.02 516.12 16.84 513.02 19.24 510.61 22.23 508.19 25.22 506.41 28.6 505.26 32.37 504.11 36.14 503.53 40 503.53 43.97 503.53 47.87 504.1 51.72 505.26 55.52 506.41 59.32 508.19 62.72 510.61 65.71 513.02 68.7 516.13 71.11 519.91 72.92 523.7 74.74 528.23 75.64 533.51 75.64 537.22 75.64 540.57 75.03 543.54 73.82 546.51 72.61 549.07 70.96 551.23 68.88 553.38 66.8 555.13 64.36 556.47 61.57 557.81 58.78 558.66 55.77 559.03 52.54L566.61 52.54C566.09 56.98 564.94 60.98 563.16 64.55 561.38 68.12 559.07 71.14 556.25 73.63 553.43 76.12 550.1 78.04 546.28 79.38 542.45 80.72 538.2 81.4 533.52 81.4 527.28 81.4 521.8 80.37 517.08 78.32 512.36 76.27 508.44 73.53 505.32 70.1 502.2 66.67 499.86 62.7 498.3 58.2 496.74 53.69 495.96 48.95 495.96 43.98 495.96 39 496.74 34.26 498.3 29.76 499.86 25.26 502.2 21.27 505.32 17.81 508.44 14.35 512.36 11.59 517.08 9.54 521.8 7.49 527.28 6.46 533.52 6.46 537.31 6.46 541 6.96 544.61 7.97 548.21 8.98 551.48 10.48 554.42 12.46 557.35 14.44 559.81 16.88 561.77 19.77 563.74 22.66 564.98 25.99 565.5 29.76L557.92 29.76C557.24 27 556.14 24.52 554.62 22.34Z" stroke="#000000" stroke-width="3" stroke-miterlimit="10"/></g><path d="M201.5 0C178.01 0 158.97 19.04 158.97 42.53 158.97 46.53 159.54 50.4 160.57 54.07 166.3 56.54 175.33 59.29 186.36 58.38 206.89 56.7 219.47 43.59 222.4 40.36 219.03 44.99 208.16 58.66 188.52 64.15 179.89 66.56 172.1 66.68 166.1 66.11 167.53 68.25 169.15 70.25 170.94 72.1 177.5 71.86 186.19 70.7 195.72 67.04 209.41 61.78 218.43 53.81 223.11 49.02 219.68 54.18 212.49 63.52 200.04 70.65 192.11 75.19 184.57 77.39 178.78 78.49 181.63 80.29 184.71 81.76 187.96 82.85 188.06 82.86 188.15 82.88 188.24 82.9 193.05 81 198.62 78.26 204.36 74.25 210.68 69.84 215.4 65.16 218.78 61.27 217.09 65.2 213.7 71.69 207.25 77.85 204.07 80.89 200.83 83.17 197.89 84.9 199.08 85 200.27 85.06 201.48 85.06 224.97 85.06 244.01 66.02 244.01 42.53 244.01 19.04 224.99 0 201.5 0Z" fill="#04488E"/></g></svg>