<svg width="443.44" height="68.16" viewBox="0 0 443.44 68.16" xmlns="http://www.w3.org/2000/svg" xmlns:xlink="http://www.w3.org/1999/xlink" overflow="hidden"><defs></defs><g><path d="M42.02 14.28C41.56 15.01 41.08 15.56 40.58 15.93 40.08 16.3 39.43 16.48 38.63 16.48 37.93 16.48 37.17 16.26 36.36 15.82 35.55 15.38 34.64 14.88 33.61 14.33 32.59 13.78 31.42 13.29 30.11 12.84 28.8 12.4 27.3 12.18 25.62 12.18 22.72 12.18 20.56 12.8 19.14 14.03 17.72 15.26 17.01 16.94 17.01 19.04 17.01 20.38 17.44 21.5 18.29 22.38 19.14 23.27 20.27 24.03 21.65 24.67 23.04 25.31 24.63 25.9 26.41 26.43 28.2 26.96 30.02 27.56 31.88 28.22 33.74 28.88 35.57 29.65 37.35 30.53 39.13 31.42 40.72 32.54 42.11 33.92 43.5 35.29 44.62 36.96 45.47 38.93 46.32 40.9 46.75 43.27 46.75 46.05 46.75 49.13 46.22 52.02 45.15 54.7 44.08 57.39 42.53 59.73 40.5 61.73 38.47 63.73 35.97 65.3 32.99 66.44 30.01 67.58 26.64 68.16 22.85 68.16 20.77 68.16 18.66 67.95 16.51 67.52 14.36 67.09 12.28 66.49 10.26 65.71 8.25 64.93 6.35 64.01 4.58 62.94 2.85 61.87 1.31 60.68 0 59.37L4.58 52.14C4.92 51.59 5.39 51.15 6 50.81 6.61 50.47 7.27 50.31 7.97 50.31 8.89 50.31 9.81 50.6 10.74 51.18 11.67 51.76 12.72 52.4 13.9 53.1 15.07 53.8 16.42 54.44 17.95 55.02 19.48 55.6 21.28 55.89 23.35 55.89 26.16 55.89 28.34 55.27 29.9 54.04 31.46 52.81 32.23 50.84 32.23 48.16 32.23 46.6 31.8 45.34 30.95 44.36 30.1 43.38 28.97 42.57 27.59 41.93 26.2 41.29 24.62 40.72 22.85 40.24 21.08 39.75 19.26 39.21 17.4 38.62 15.54 38.02 13.72 37.29 11.95 36.42 10.18 35.55 8.6 34.41 7.21 32.99 5.82 31.57 4.7 29.8 3.85 27.68 3 25.56 2.57 22.94 2.57 19.83 2.57 17.33 3.07 14.89 4.08 12.51 5.08 10.12 6.56 8 8.51 6.13 10.46 4.27 12.86 2.78 15.7 1.67 18.54 0.56 21.79 0 25.45 0 27.49 0 29.49 0.16 31.42 0.48 33.36 0.8 35.2 1.27 36.94 1.9 38.68 2.53 40.3 3.27 41.81 4.14 43.32 5.01 44.67 5.99 45.86 7.09L42.02 14.28Z" fill="#AA050E"/><path d="M120.29 34.05C120.29 38.87 119.46 43.36 117.8 47.51 116.14 51.66 113.79 55.27 110.77 58.34 107.75 61.41 104.11 63.81 99.85 65.55 95.59 67.29 90.87 68.16 85.68 68.16 80.49 68.16 75.76 67.29 71.49 65.55 67.22 63.81 63.56 61.41 60.53 58.34 57.49 55.27 55.14 51.67 53.48 47.51 51.82 43.36 50.99 38.87 50.99 34.05 50.99 29.23 51.82 24.74 53.48 20.59 55.14 16.44 57.49 12.84 60.53 9.79 63.57 6.74 67.22 4.34 71.49 2.6 75.77 0.87 80.5 0 85.69 0 90.88 0 95.6 0.88 99.86 2.63 104.12 4.38 107.76 6.79 110.78 9.84 113.8 12.89 116.14 16.49 117.81 20.64 119.46 24.79 120.29 29.26 120.29 34.05ZM104.45 34.05C104.45 30.75 104.02 27.79 103.17 25.15 102.32 22.51 101.09 20.28 99.49 18.44 97.89 16.61 95.93 15.21 93.61 14.23 91.29 13.25 88.65 12.77 85.69 12.77 82.7 12.77 80.04 13.26 77.7 14.23 75.37 15.21 73.4 16.61 71.8 18.44 70.2 20.27 68.97 22.51 68.12 25.15 67.26 27.79 66.84 30.76 66.84 34.05 66.84 37.38 67.27 40.36 68.12 43 68.97 45.64 70.2 47.87 71.8 49.71 73.4 51.54 75.37 52.94 77.7 53.9 80.04 54.86 82.7 55.34 85.69 55.34 88.65 55.34 91.29 54.86 93.61 53.9 95.93 52.94 97.89 51.54 99.49 49.71 101.09 47.88 102.32 45.64 103.17 43 104.03 40.36 104.45 37.38 104.45 34.05Z" fill="#AA050E"/><path d="M170.64 0.73 170.64 12.63 143.27 12.63 143.27 29.57 166.06 29.57 166.06 41.47 143.27 41.47 143.27 67.42 127.7 67.42 127.7 0.73 170.64 0.73Z" fill="#AA050E"/><path d="M233.44 67.42 221.45 67.42C220.11 67.42 219 67.11 218.13 66.48 217.26 65.85 216.66 65.05 216.32 64.08L212.38 52.45 187.02 52.45 183.08 64.08C182.78 64.93 182.18 65.71 181.29 66.39 180.4 67.07 179.32 67.42 178.04 67.42L165.96 67.42 191.78 0.73 207.62 0.73 233.44 67.42ZM190.59 41.93 208.81 41.93 202.68 23.67C202.28 22.51 201.82 21.15 201.28 19.57 200.75 18 200.22 16.3 199.7 14.47 199.21 16.33 198.71 18.06 198.19 19.64 197.67 21.23 197.18 22.6 196.73 23.76L190.59 41.93Z" fill="#AA050E"/><path d="M274.7 40.55C275.26 41.8 275.81 43.08 276.33 44.39 276.85 43.05 277.4 41.74 277.98 40.48 278.56 39.21 279.15 37.99 279.77 36.8L296.89 3.11C297.19 2.53 297.51 2.08 297.83 1.76 298.15 1.44 298.51 1.2 298.91 1.05 299.31 0.9 299.76 0.81 300.26 0.78 300.76 0.75 301.35 0.73 302.02 0.73L313.83 0.73 313.83 67.42 300.19 67.42 300.19 29.07C300.19 27.21 300.28 25.2 300.47 23.03L282.8 57.31C282.25 58.38 281.51 59.19 280.58 59.74 279.65 60.29 278.59 60.56 277.4 60.56L275.29 60.56C274.1 60.56 273.04 60.29 272.11 59.74 271.18 59.19 270.44 58.38 269.89 57.31L252.13 22.98C252.25 24.05 252.34 25.11 252.4 26.16 252.46 27.21 252.49 28.18 252.49 29.07L252.49 67.43 238.85 67.43 238.85 0.73 250.66 0.73C251.33 0.73 251.92 0.75 252.42 0.78 252.92 0.81 253.37 0.9 253.77 1.05 254.17 1.2 254.53 1.44 254.85 1.76 255.17 2.08 255.48 2.53 255.79 3.11L272.95 36.94C273.55 38.1 274.14 39.3 274.7 40.55Z" fill="#AA050E"/><path d="M386.87 67.42 374.88 67.42C373.54 67.42 372.43 67.11 371.56 66.48 370.69 65.85 370.09 65.05 369.75 64.08L365.81 52.45 340.45 52.45 336.51 64.08C336.21 64.93 335.61 65.71 334.72 66.39 333.83 67.07 332.75 67.42 331.47 67.42L319.4 67.42 345.22 0.73 361.06 0.73 386.87 67.42ZM344.02 41.93 362.24 41.93 356.11 23.67C355.71 22.51 355.25 21.15 354.71 19.57 354.18 18 353.65 16.3 353.13 14.47 352.64 16.33 352.14 18.06 351.62 19.64 351.1 21.23 350.61 22.6 350.16 23.76L344.02 41.93Z" fill="#AA050E"/><path d="M434.33 50.17C434.7 50.17 435.06 50.24 435.43 50.38 435.8 50.52 436.15 50.75 436.48 51.09L442.61 57.54C439.92 61.05 436.56 63.7 432.52 65.48 428.48 67.27 423.69 68.16 418.17 68.16 413.1 68.16 408.56 67.3 404.55 65.57 400.54 63.85 397.13 61.47 394.34 58.43 391.55 55.39 389.4 51.79 387.91 47.63 386.41 43.46 385.67 38.94 385.67 34.06 385.67 29.09 386.52 24.52 388.23 20.35 389.94 16.18 392.33 12.59 395.39 9.57 398.46 6.55 402.13 4.2 406.4 2.52 410.68 0.84 415.4 0 420.55 0 423.05 0 425.41 0.22 427.62 0.66 429.83 1.1 431.9 1.71 433.82 2.49 435.74 3.27 437.51 4.2 439.13 5.28 440.75 6.36 442.18 7.56 443.43 8.87L438.21 15.87C437.87 16.3 437.48 16.69 437.02 17.04 436.56 17.39 435.92 17.57 435.1 17.57 434.55 17.57 434.03 17.45 433.54 17.2 433.05 16.96 432.53 16.66 431.98 16.31 431.43 15.96 430.83 15.58 430.17 15.17 429.51 14.76 428.73 14.38 427.84 14.03 426.94 13.68 425.89 13.38 424.68 13.14 423.47 12.9 422.06 12.77 420.45 12.77 417.64 12.77 415.08 13.27 412.76 14.26 410.44 15.25 408.45 16.67 406.79 18.52 405.13 20.37 403.83 22.6 402.9 25.23 401.97 27.86 401.5 30.8 401.5 34.06 401.5 37.48 401.96 40.51 402.9 43.17 403.84 45.83 405.1 48.06 406.7 49.88 408.3 51.7 410.17 53.08 412.31 54.02 414.45 54.96 416.73 55.44 419.18 55.44 420.58 55.44 421.86 55.37 423.02 55.23 424.18 55.09 425.26 54.86 426.25 54.52 427.24 54.18 428.19 53.75 429.09 53.22 429.99 52.69 430.9 52.02 431.81 51.23 432.18 50.93 432.57 50.67 433 50.48 433.43 50.27 433.87 50.17 434.33 50.17Z" fill="#AA050E"/></g></svg>