<?xml version="1.0" encoding="UTF-8"?>
<svg width="300px" height="92px" viewBox="0 0 300 92" version="1.1" xmlns="http://www.w3.org/2000/svg" xmlns:xlink="http://www.w3.org/1999/xlink">
    <!-- Generator: Sketch 40 (33762) - http://www.bohemiancoding.com/sketch -->
    <title>bacon</title>
    <desc>Created with Sketch.</desc>
    <defs></defs>
    <g id="Page-1" stroke="none" stroke-width="1" fill="none" fill-rule="evenodd">
        <g id="bacon">
            <g id="Group">
                <path d="M230.08007,0.0013054988 C224.68668,0.0769054988 219.00818,2.7452955 211.23046,8.0286455 C195.61452,18.6382155 188.941,18.6374655 172.99804,8.0256455 C157.66964,-2.1770545 151.71949,-2.2753345 137.70117,7.4455655 C128.9185,13.5358455 125.20735,14.8803255 117,14.9455755 C108.454,15.0134755 105.57445,13.9341855 97.20996,7.5246755 C83.94783,-2.6377945 76.78593,-2.5351945 61.23047,8.0314955 C45.61453,18.6396055 38.941,18.6374055 22.99804,8.0254955 C12.93878,1.3300055 6.91291,-0.985414501 0,0.941515499 L0,46.5538455 C7.52005,44.7249955 14.24978,46.9086555 23.2588,53.1134255 C38.86732,63.8634355 44.53177,64.0366255 59.25293,54.2061955 C75.72632,43.2056355 84.41841,43.0430055 98.75976,53.4679055 C112.6867,63.5926955 121.08563,63.5937055 135.97264,53.4799055 C150.67072,43.4942355 159.17,43.4103755 173.25878,53.1136955 C188.86729,63.8637355 194.53177,64.0369055 209.25292,54.2064855 C225.72633,43.2059255 234.41841,43.0433355 248.75975,53.4681955 C262.6867,63.5899655 271.08562,63.5939855 285.97264,53.4801955 C291.27124,49.8804055 295.76037,47.5858555 299.99997,46.5544155 L299.99997,0.942085499 C296.37893,1.9515955 292.51996,4.1014955 287.70115,7.4430655 C278.91848,13.5333555 275.20735,14.8807455 266.99998,14.9459955 C258.45398,15.0138955 255.57736,13.9346355 247.21288,7.5251055 C240.58182,2.4438555 235.47345,-0.0740045012 230.08007,0.0016554988 L230.08007,0.0013054988 Z" id="path4147-path-copy-2" fill="#ffffff"></path>
              
            </g>
        </g>
    </g>
</svg>