<?xml version="1.0" encoding="UTF-8"?>
<svg width="37px" height="37px" viewBox="0 0 37 37" version="1.1" xmlns="http://www.w3.org/2000/svg" xmlns:xlink="http://www.w3.org/1999/xlink">
    <!-- Generator: Sketch 60.1 (88133) - https://sketch.com -->
    <title>Icon/Truck Big</title>
    <desc>Created with Sketch.</desc>
    <g id="Desktop-V2" stroke="none" stroke-width="1" fill="none" fill-rule="evenodd">
        <g id="WebKAM-014" transform="translate(-327.000000, -2132.000000)" fill="#26AD90">
            <g id="Icon/Fiabilite" transform="translate(325.000000, 2131.000000)">
                <g id="Explore" transform="translate(1.666667, 0.833333)">
                    <path d="M18.9333333,0.333333333 C8.80811292,0.333333333 0.6,8.54144625 0.6,18.6666667 C0.6,28.7918871 8.80811292,37 18.9333333,37 C29.0585537,37 37.2666667,28.7918871 37.2666667,18.6666667 C37.2666667,8.54144625 29.0585537,0.333333333 18.9333333,0.333333333 Z M18.9333333,34.5 C10.1888248,34.5 3.1,27.4111752 3.1,18.6666667 C3.1,9.92215813 10.1888248,2.83333333 18.9333333,2.83333333 C27.6778419,2.83333333 34.7666667,9.92215813 34.7666667,18.6666667 C34.7666667,27.4111752 27.6778419,34.5 18.9333333,34.5 L18.9333333,34.5 Z" id="Shape"></path>
                    <path d="M25.8833333,9.5 L15.575,15.2083333 L15.5166667,15.2083333 L15.4083333,15.2833333 L15.2916667,15.3833333 L15.2083333,15.4833333 L15.1166667,15.6083333 L15.1166667,15.6666667 L9.44166667,26.1666667 C9.21337243,26.6446774 9.31116956,27.2146809 9.68574435,27.5892557 C10.0603191,27.9638304 10.6303226,28.0616276 11.1083333,27.8333333 L21.4166667,22.125 L21.475,22.125 L21.5833333,22.05 L21.7,21.95 L21.7833333,21.85 L21.875,21.725 L21.875,21.6666667 L27.5,11.1416667 C27.7282942,10.6636559 27.6304971,10.0936525 27.2559223,9.71907768 C26.8813475,9.3445029 26.3113441,9.24670577 25.8333333,9.475 L25.8833333,9.5 Z M16.475,18.4 L18.825,20.8166667 L13.65,23.6833333 L16.475,18.4 Z M20.5666667,19.025 L18.2166667,16.6083333 L23.3916667,13.7416667 L20.5666667,19.025 Z" id="Shape"></path>
                    <path d="M31.4333333,17.8333333 L28.9333333,17.8333333 C28.473096,17.8333333 28.1,18.2064294 28.1,18.6666667 C28.1,19.126904 28.473096,19.5 28.9333333,19.5 L31.4333333,19.5 C31.8935706,19.5 32.2666667,19.126904 32.2666667,18.6666667 C32.2666667,18.2064294 31.8935706,17.8333333 31.4333333,17.8333333 Z" id="Shape"></path>
                    <path d="M9.76666667,18.6666667 C9.76666667,18.2064294 9.39357062,17.8333333 8.93333333,17.8333333 L6.43333333,17.8333333 C5.97309604,17.8333333 5.6,18.2064294 5.6,18.6666667 C5.6,19.126904 5.97309604,19.5 6.43333333,19.5 L8.93333333,19.5 C9.39357062,19.5 9.76666667,19.126904 9.76666667,18.6666667 Z" id="Shape"></path>
                    <path d="M18.9333333,27.8333333 C18.473096,27.8333333 18.1,28.2064294 18.1,28.6666667 L18.1,31.1666667 C18.1,31.626904 18.473096,32 18.9333333,32 C19.3935706,32 19.7666667,31.626904 19.7666667,31.1666667 L19.7666667,28.6666667 C19.7666667,28.2064294 19.3935706,27.8333333 18.9333333,27.8333333 Z" id="Shape"></path>
                    <path d="M18.9333333,9.5 C19.3935706,9.5 19.7666667,9.12690396 19.7666667,8.66666667 L19.7666667,6.16666667 C19.7666667,5.70642938 19.3935706,5.33333333 18.9333333,5.33333333 C18.473096,5.33333333 18.1,5.70642938 18.1,6.16666667 L18.1,8.66666667 C18.1,9.12690396 18.473096,9.5 18.9333333,9.5 Z" id="Shape"></path>
                </g>
            </g>
        </g>
    </g>
</svg>