<?xml version="1.0" encoding="UTF-8"?>
<svg width="40px" height="36px" viewBox="0 0 40 36" version="1.1" xmlns="http://www.w3.org/2000/svg" xmlns:xlink="http://www.w3.org/1999/xlink">
    <!-- Generator: Sketch 60.1 (88133) - https://sketch.com -->
    <title>Icon/Truck Big</title>
    <desc>Created with Sketch.</desc>
    <g id="Desktop-V2" stroke="none" stroke-width="1" fill="none" fill-rule="evenodd">
        <g id="WebKAM-014" transform="translate(-325.000000, -1819.000000)" fill="#26AD90">
            <g id="Icon/Comment-green" transform="translate(325.000000, 1817.000000)">
                <g id="Слой_151" transform="translate(0.000000, 2.000000)">
                    <path d="M31.7511111,3.02222222 C34.6966298,3.02222222 37.0844444,5.41003689 37.0844444,8.35555556 L37.0844444,22.5777778 C37.0844444,25.5232964 34.6966298,27.9111111 31.7511111,27.9111111 L15.5288889,27.9111111 L9.52888889,33.2444444 L9.52888889,27.9111111 L8.64,27.9111111 C5.69448133,27.9111111 3.30666667,25.5232964 3.30666667,22.5777778 L3.30666667,8.35555556 C3.30666667,5.41003689 5.69448133,3.02222222 8.64,3.02222222 L31.7511111,3.02222222 L31.7511111,3.02222222 Z M8.64,0.355555556 C4.221722,0.355555556 0.64,3.93727756 0.64,8.35555556 L0.64,22.5777778 C0.637910343,26.3127976 3.22059194,29.5522183 6.86222222,30.3822222 L6.86222222,33.2444444 C6.86084227,34.2966812 7.47835434,35.2513469 8.43862989,35.6815504 C9.39890543,36.1117538 10.5223758,35.9370482 11.3066667,35.2355556 L16.5511111,30.5777778 L31.7511111,30.5777778 C36.1693891,30.5777778 39.7511111,26.9960558 39.7511111,22.5777778 L39.7511111,8.35555556 C39.7511111,3.93727756 36.1693891,0.355555556 31.7511111,0.355555556 L8.64,0.355555556 Z" id="Shape"></path>
                    <circle id="Oval" cx="20.1955556" cy="15.4666667" r="1.33333333"></circle>
                    <circle id="Oval" cx="29.0844444" cy="15.4666667" r="1.33333333"></circle>
                    <circle id="Oval" cx="11.4133333" cy="15.4666667" r="1.33333333"></circle>
                </g>
            </g>
        </g>
    </g>
</svg>