<?xml version="1.0" encoding="UTF-8"?>
<svg width="48px" height="48px" viewBox="0 0 48 48" version="1.1" xmlns="http://www.w3.org/2000/svg" xmlns:xlink="http://www.w3.org/1999/xlink">
    <!-- Generator: Sketch 55.2 (78181) - https://sketchapp.com -->
    <title>Icon/Rapidite</title>
    <desc>Created with Sketch.</desc>
    <g id="Icon/Rapidite" stroke="none" stroke-width="1" fill="none" fill-rule="evenodd">
        <g id="Lightning" transform="translate(12.000000, 1.000000)" fill="#26AD90">
            <path d="M24.22,18.75 C23.6660923,17.9088979 22.7271062,17.4018455 21.72,17.4 L15.72,17.4 L15.72,3.4 C15.7220216,1.97362542 14.7194374,0.743049219 13.3220821,0.456785478 C11.9247269,0.170521737 10.5190196,0.90773264 9.96,2.22 L0.96,23.22 C0.563357925,24.1471294 0.659045889,25.2115091 1.21468982,26.0530278 C1.77033376,26.8945465 2.7115886,27.4006092 3.72,27.4 L9.72,27.4 L9.72,41.4 C9.71797835,42.8263746 10.7205626,44.0569508 12.1179179,44.3432145 C13.5152731,44.6294783 14.9209804,43.8922674 15.48,42.58 L24.48,21.58 C24.8739832,20.6528461 24.7763225,19.5898466 24.22,18.75 Z M12.72,41.4 L12.72,24.4 L3.72,24.4 L12.72,3.4 L12.72,20.4 L21.72,20.4 L12.72,41.4 Z" id="Shape"></path>
        </g>
    </g>
</svg>