<?xml version="1.0" encoding="UTF-8"?>
<svg width="39px" height="19px" viewBox="0 0 39 19" version="1.1" xmlns="http://www.w3.org/2000/svg" xmlns:xlink="http://www.w3.org/1999/xlink">
    <!-- Generator: Sketch 60.1 (88133) - https://sketch.com -->
    <title>Icon/Truck Big</title>
    <desc>Created with Sketch.</desc>
    <g id="Desktop-V2" stroke="none" stroke-width="1" fill="none" fill-rule="evenodd">
        <g id="WebKAM-014" transform="translate(-326.000000, -1425.000000)" fill="#26AD90">
            <g id="Icon/Location" transform="translate(325.000000, 1415.000000)">
                <g id="Infinity" transform="translate(0.833333, 10.000000)">
                    <path d="M30.7,0.333333333 C28.6666667,0.333333333 26.3083333,1.59166667 23.2583333,4.3 C22.0587883,5.37057226 20.9155856,6.50264892 19.8333333,7.69166667 L19.8333333,7.69166667 L18.0916667,9.5 L18.0916667,9.5 C18.0916667,9.5 12.2083333,16.1666667 8.925,16.1666667 C5.64166667,16.1666667 3.09166667,13.1833333 3.09166667,9.5 C3.09166667,5.81666667 5.725,2.83333333 8.925,2.83333333 C10.975,2.83333333 14.0666667,5.48333333 16.075,7.44166667 L17.85,5.66666667 C15.475,3.33333333 11.8583333,0.333333333 8.925,0.333333333 C4.30833333,0.333333333 0.591666667,4.44166667 0.591666667,9.5 C0.591666667,14.5583333 4.35,18.6666667 8.925,18.6666667 C10.9583333,18.6666667 13.3166667,17.4083333 16.3666667,14.7 C17.5662014,13.6294168 18.7094036,12.4973407 19.7916667,11.3083333 L19.7916667,11.3083333 L21.525,9.5 L21.525,9.5 C21.525,9.5 27.4083333,2.83333333 30.6916667,2.83333333 C33.975,2.83333333 36.525,5.81666667 36.525,9.5 C36.525,13.1833333 33.8916667,16.1666667 30.6916667,16.1666667 C28.65,16.1666667 25.55,13.5166667 23.55,11.5583333 L21.8,13.3666667 C24.175,15.6916667 27.775,18.6666667 30.7,18.6666667 C35.3166667,18.6666667 39.0333333,14.5583333 39.0333333,9.5 C39.0333333,4.44166667 35.3166667,0.333333333 30.7,0.333333333 Z" id="Shape"></path>
                </g>
            </g>
        </g>
    </g>
</svg>