<?xml version="1.0" encoding="UTF-8"?>
<svg width="36px" height="34px" viewBox="0 0 36 34" version="1.1" xmlns="http://www.w3.org/2000/svg" xmlns:xlink="http://www.w3.org/1999/xlink">
    <!-- Generator: Sketch 60.1 (88133) - https://sketch.com -->
    <title>Icon/Truck Big</title>
    <desc>Created with Sketch.</desc>
    <g id="Desktop-V2" stroke="none" stroke-width="1" fill="none" fill-rule="evenodd">
        <g id="WebKAM-014" transform="translate(-327.000000, -489.000000)" fill="#26AD90">
            <g id="Icon/User-Green" transform="translate(325.000000, 485.000000)">
                <g id="User" transform="translate(2.000000, 4.000000)">
                    <path d="M17.8510769,21.0215385 C22.5981538,21.0215385 26.4664615,16.3864615 26.4664615,10.6830769 C26.4664615,4.97969231 22.5981538,0.344615385 17.8510769,0.344615385 C13.104,0.344615385 9.23569231,4.97969231 9.23569231,10.6830769 C9.23569231,16.3864615 13.1126154,21.0215385 17.8510769,21.0215385 Z M17.8510769,2.92923077 C21.1852308,2.92923077 23.8818462,6.37538462 23.8818462,10.6830769 C23.8818462,14.9907692 21.1852308,18.4369231 17.8510769,18.4369231 C14.5169231,18.4369231 11.8203077,14.9907692 11.8203077,10.6830769 C11.8203077,6.37538462 14.5169231,2.92923077 17.8510769,2.92923077 Z" id="Shape"></path>
                    <path d="M25.7341538,20.16 C25.0204321,20.0886279 24.3839877,20.6093552 24.3126155,21.3230769 C24.2412433,22.0367987 24.7619705,22.6732431 25.4756923,22.7446154 C29.4835879,23.2155682 32.5886711,26.4726485 32.8676923,30.4984615 L2.83446154,30.4984615 C3.13985795,26.4843333 6.23149698,23.2413553 10.2264615,22.7446154 C10.9401834,22.6732432 11.4609106,22.0367988 11.3895385,21.3230769 C11.3181663,20.6093551 10.6817218,20.0886278 9.968,20.16 C9.87323077,20.16 0.189538462,21.2627692 0.189538462,31.7821538 C0.189538462,32.4958757 0.768124323,33.0744615 1.48184615,33.0744615 L34.2203077,33.0744615 C34.9340295,33.0744615 35.5126154,32.4958757 35.5126154,31.7821538 C35.5126154,21.2627692 25.8289231,20.16 25.7341538,20.16 Z" id="Shape"></path>
                </g>
            </g>
        </g>
    </g>
</svg>