<?xml version="1.0" encoding="UTF-8"?>
<svg width="42px" height="36px" viewBox="0 0 42 36" version="1.1" xmlns="http://www.w3.org/2000/svg" xmlns:xlink="http://www.w3.org/1999/xlink">
    <!-- Generator: Sketch 60.1 (88133) - https://sketch.com -->
    <title>Icon/Truck Big</title>
    <desc>Created with Sketch.</desc>
    <g id="Desktop-V2" stroke="none" stroke-width="1" fill="none" fill-rule="evenodd">
        <g id="WebKAM-014" transform="translate(-324.000000, -1625.000000)">
            <g id="Icon/Savings-Copy" transform="translate(325.000000, 1623.000000)">
                <g id="Money_box" transform="translate(-0.833333, 1.666667)">
                    <circle id="Oval" fill="#FFFFFF" cx="31.0166667" cy="14.9166667" r="1.25"></circle>
                    <path d="M37.9666667,12.8916667 C36.5916667,9.55833333 33.8,7.15833333 29.925,5.78333333 L30.9583333,2.33333333 C31.0969295,1.8639345 30.9488263,1.35683091 30.579382,1.03580895 C30.2099378,0.714786979 29.6871266,0.638911529 29.2416667,0.841666667 L21.1916667,4.51666667 C11.6833333,4.75 5.05833333,9.94166667 4.79166667,17.3666667 C3.525,17.0083333 2.975,16.575 2.9,16.3 C2.825,16.025 3.06666667,15.4083333 3.98333333,14.4916667 C4.44226477,13.9991504 4.42872313,13.2316505 3.952703,12.7556303 C3.47668287,12.2796102 2.70918292,12.2660686 2.21666667,12.725 C0.708333333,14.2333333 0.125,15.6583333 0.491666667,16.9666667 C0.858333333,18.275 2.20833333,19.3083333 4.46666667,19.8666667 C4.56906601,19.8791398 4.67260066,19.8791398 4.775,19.8666667 C4.83325666,19.8708964 4.89174334,19.8708964 4.95,19.8666667 C5.54166667,23.2666667 7.575,25.575 9.76666667,27.3666667 L9.76666667,31.7416667 C9.75488443,34.0868039 11.5910317,36.0257755 13.9333333,36.1416667 L16.4333333,36.1416667 C18.2867156,36.0868718 19.8944067,34.845788 20.4166667,33.0666667 L21.85,33.0666667 C22.325,33.0666667 22.8083333,33.1416667 23.2833333,33.0666667 C23.8107037,34.8373014 25.4196514,36.0658911 27.2666667,36.1083333 L29.7666667,36.1083333 C32.1089683,35.9924421 33.9451156,34.0534706 33.9333333,31.7083333 L33.9333333,27.3666667 C35.3876836,26.3876855 36.6129482,25.1055642 37.525,23.6083333 C39.7247276,23.4716914 41.4375732,21.64563 41.4333333,19.4416667 L41.4333333,16.9416667 C41.4055954,14.9323352 39.9476608,13.2290751 37.9666667,12.8916667 Z M38.9333333,19.5 C38.9333333,20.4204746 38.1871412,21.1666667 37.2666667,21.1666667 L35.8916667,21.1666667 C35.125,23.55 33.5416667,24.5833333 31.4333333,26.1666667 L31.4333333,31.7666667 C31.4483063,32.7340912 30.7277964,33.5554726 29.7666667,33.6666667 L27.2666667,33.6666667 C26.3055369,33.5554726 25.585027,32.7340912 25.6,31.7666667 L25.6,30.1 C23.1324678,30.6698053 20.5675322,30.6698053 18.1,30.1 L18.1,31.7666667 C18.114973,32.7340912 17.3944631,33.5554726 16.4333333,33.6666667 L13.9333333,33.6666667 C12.9722036,33.5554726 12.2516937,32.7340912 12.2666667,31.7666667 L12.2666667,26.1666667 C9.20833333,23.875 7.26666667,21.5833333 7.26666667,17.8333333 C7.26666667,11.5333333 12.7083333,7.725 19.7666667,7.1 C20.1364037,7.43016094 20.6670865,7.50878061 21.1166667,7.3 L21.775,7 L21.9333333,7 L21.8666667,7 L27.775,4.3 L26.1083333,10.0166667 C25.9501247,10.6631196 26.326175,11.3201767 26.963699,11.5112118 C27.6012231,11.7022469 28.2766376,11.3602628 28.5,10.7333333 L29.25,8.23333333 C32.7583333,9.51666667 35.3416667,11.8583333 36.175,15.3916667 L37.3,15.3916667 C38.2204746,15.3916667 38.9666667,16.1378588 38.9666667,17.0583333 L38.9333333,19.5 Z" id="Shape" fill="#26AD90"></path>
                </g>
            </g>
        </g>
    </g>
</svg>