<?xml version="1.0" encoding="UTF-8"?>
<svg width="34px" height="37px" viewBox="0 0 34 37" version="1.1" xmlns="http://www.w3.org/2000/svg" xmlns:xlink="http://www.w3.org/1999/xlink">
    <!-- Generator: Sketch 60.1 (88133) - https://sketch.com -->
    <title>Icon/Truck Big</title>
    <desc>Created with Sketch.</desc>
    <g id="Desktop-V2" stroke="none" stroke-width="1" fill="none" fill-rule="evenodd">
        <g id="WebKAM-014" transform="translate(-328.000000, -1115.000000)">
            <g id="Icon/Smiley-Happy-Highlighted" transform="translate(325.000000, 1114.000000)">
                <g id="Play" fill-rule="evenodd" transform="translate(3.076923, 1.666667)" fill="#26AD90">
                    <path d="M16.5128208,0 C7.39304168,0 0,8.00912849 0,17.8888892 C0,27.7686498 7.39304168,35.7777783 16.5128208,35.7777783 C25.6325999,35.7777783 33.0256415,27.7686498 33.0256415,17.8888892 C33.0256415,8.00912849 25.6325999,0 16.5128208,0 L16.5128208,0 Z M16.5128208,33.3383844 C8.63664792,33.3383844 2.25174829,26.4214098 2.25174829,17.8888892 C2.25174829,9.35636858 8.63664792,2.43939398 16.5128208,2.43939398 C24.3889936,2.43939398 30.7738933,9.35636858 30.7738933,17.8888892 C30.7738933,26.4214098 24.3889936,33.3383844 16.5128208,33.3383844 Z" id="Shape"></path>
                </g>
                <path d="M10,22.5 C10.9911819,25.8333333 14.1217716,27.5 19.391769,27.5 C28.4615385,27.5 29.4486354,22.5 29.4486354,22.5" id="Line-4" stroke="#26AD90" stroke-linecap="round" stroke-linejoin="round"></path>
                <ellipse id="Oval" stroke="#26AD90" fill="#26AD90" fill-rule="evenodd" cx="15.3846154" cy="16.6666667" rx="1.53846154" ry="1.66666667"></ellipse>
                <ellipse id="Oval" stroke="#26AD90" fill="#26AD90" fill-rule="evenodd" cx="24.6153846" cy="16.6666667" rx="1.53846154" ry="1.66666667"></ellipse>
            </g>
        </g>
    </g>
</svg>