<?xml version="1.0" encoding="UTF-8"?>
<svg width="40px" height="41px" viewBox="0 0 40 41" version="1.1" xmlns="http://www.w3.org/2000/svg" xmlns:xlink="http://www.w3.org/1999/xlink">
    <!-- Generator: Sketch 60.1 (88133) - https://sketch.com -->
    <title>Icon/Truck Big</title>
    <desc>Created with Sketch.</desc>
    <g id="Desktop-V2" stroke="none" stroke-width="1" fill="none" fill-rule="evenodd">
        <g id="WebKAM-014" transform="translate(-325.000000, -329.000000)" fill="#26AD90">
            <g id="Icon/Ratings-Star-(empty)" transform="translate(325.000000, 329.000000)">
                <path d="M15.3057143,15.6923077 L0,15.6615385 L12.4,25.2923077 L7.64,40.9538462 L20,31.2615385 L32.36,40.9538462 L27.6,25.2923077 L40,15.6615385 L24.6971429,15.6923077 L20,0 L15.3057143,15.6923077 Z M20,10.0307692 L21.9771429,16.6153846 L22.6171429,18.7692308 L24.7028571,18.7692308 L31.1485714,18.7384615 L25.9257143,22.8 L24.2371429,24.1230769 L24.8857143,26.2769231 L26.8885714,32.8615385 L21.6857143,28.7692308 L20,27.4461538 L13.1114286,32.8615385 L15.1142857,26.2769231 L15.7628571,24.1230769 L14.0742857,22.8 L8.85428571,18.7384615 L15.3,18.7692308 L17.3828571,18.7692308 L18.0228571,16.6153846 L20,10.0307692 L20,10.0307692 Z" id="star"></path>
            </g>
        </g>
    </g>
</svg>