<?xml version="1.0" encoding="UTF-8"?>
<svg width="24px" height="41px" viewBox="0 0 24 41" version="1.1" xmlns="http://www.w3.org/2000/svg" xmlns:xlink="http://www.w3.org/1999/xlink">
    <!-- Generator: Sketch 60.1 (88133) - https://sketch.com -->
    <title>Icon/Truck Big</title>
    <desc>Created with Sketch.</desc>
    <g id="Desktop-V2" stroke="none" stroke-width="1" fill="none" fill-rule="evenodd">
        <g id="WebKAM-014" transform="translate(-333.000000, -920.000000)" fill="#26AD90">
            <g id="Icon/Mobile-Green" transform="translate(325.000000, 921.000000)">
                <g id="Mobile" transform="translate(8.000000, -2.000000)">
                    <path d="M24,8.004662 C24,4.49012269 23.0242305,1.64102564 19.4556213,1.64102564 L4.5443787,1.64102564 C0.975769545,1.64102564 0,4.49012269 0,8.004662 L0,35.2773893 C0,38.7919286 0.975769545,41.6410256 4.5443787,41.6410256 L19.4556213,41.6410256 C23.0242305,41.6410256 24,38.7919286 24,35.2773893 L24,8.004662 Z M2.76923077,9.82284382 L21.2307692,9.82284382 L21.2307692,31.6410256 L2.76923077,31.6410256 L2.76923077,9.82284382 Z M4.5443787,4.36829837 L19.4556213,4.36829837 C21.1348431,4.37366854 20.6817396,5.4942957 21.1015385,7.0955711 L2.89846154,7.0955711 C3.31826036,5.4942957 2.86515687,4.37366854 4.5443787,4.36829837 Z M19.4556213,38.9137529 L4.5443787,38.9137529 C2.50517347,38.9137529 2.76923077,37.2856975 2.76923077,35.2773893 L2.76923077,34.3682984 L21.2307692,34.3682984 L21.2307692,35.2773893 C21.2307692,37.2856975 21.4948265,38.9137529 19.4556213,38.9137529 Z" id="Shape"></path>
                    <circle id="Oval" cx="12" cy="37.6410256" r="1.33333333"></circle>
                </g>
            </g>
        </g>
    </g>
</svg>