<?xml version="1.0" encoding="UTF-8"?>
<svg width="33px" height="35px" viewBox="0 0 33 35" version="1.1" xmlns="http://www.w3.org/2000/svg" xmlns:xlink="http://www.w3.org/1999/xlink">
    <!-- Generator: Sketch 60.1 (88133) - https://sketch.com -->
    <title>Icon/Truck Big</title>
    <desc>Created with Sketch.</desc>
    <g id="Desktop-V2" stroke="none" stroke-width="1" fill="none" fill-rule="evenodd">
        <g id="WebKAM-014" transform="translate(-329.000000, -730.000000)" fill="#26AD90">
            <g id="Icon/Truck-Big" transform="translate(325.000000, 727.000000)">
                <g id="Bus" transform="translate(4.166667, 3.333333)">
                    <path d="M26.4333333,0.333333333 L6.43333333,0.333333333 C3.21167229,0.333333333 0.6,2.94500563 0.6,6.16666667 L0.6,32 C0.6,33.3807119 1.71928813,34.5 3.1,34.5 L8.1,34.5 C9.17699623,34.5015754 10.133952,33.8132388 10.475,32.7916667 L10.7416667,31.1666667 L22.1416667,31.1666667 L22.4083333,32.7916667 C22.7493814,33.8132388 23.7063371,34.5015754 24.7833333,34.5 L29.7833333,34.5 C31.1640452,34.5 32.2833333,33.3807119 32.2833333,32 L32.2833333,6.16666667 C32.2833397,4.61667846 31.6664708,3.13041592 30.5689012,2.03597335 C29.4713317,0.941530783 27.9833152,0.328904796 26.4333333,0.333333333 Z M6.43333333,2.83333333 L26.4333333,2.83333333 C28.2742825,2.83333333 29.7666667,4.3257175 29.7666667,6.16666667 L29.7666667,13.6666667 L3.1,13.6666667 L3.1,6.16666667 C3.1,4.3257175 4.59238417,2.83333333 6.43333333,2.83333333 Z M24.7666667,32 L23.9333333,28.6666667 L8.93333333,28.6666667 L8.1,32 L3.1,32 L3.1,16.1666667 L29.7666667,16.1666667 L29.7666667,32 L24.7666667,32 Z" id="Shape"></path>
                    <path d="M9.35,17.8333333 C7.27893219,17.8333333 5.6,19.5122655 5.6,21.5833333 C5.6,23.6544011 7.27893219,25.3333333 9.35,25.3333333 C11.4210678,25.3333333 13.1,23.6544011 13.1,21.5833333 C13.0954171,19.5141668 11.4191665,17.8379162 9.35,17.8333333 Z M9.35,22.8333333 C8.65964406,22.8333333 8.1,22.2736893 8.1,21.5833333 C8.1,20.8929774 8.65964406,20.3333333 9.35,20.3333333 C10.0403559,20.3333333 10.6,20.8929774 10.6,21.5833333 C10.6,22.2736893 10.0403559,22.8333333 9.35,22.8333333 Z" id="Shape"></path>
                    <path d="M23.5166667,17.8333333 C21.4455989,17.8333333 19.7666667,19.5122655 19.7666667,21.5833333 C19.7666667,23.6544011 21.4455989,25.3333333 23.5166667,25.3333333 C25.5877345,25.3333333 27.2666667,23.6544011 27.2666667,21.5833333 C27.2620838,19.5141668 25.5858332,17.8379162 23.5166667,17.8333333 Z M23.5166667,22.8333333 C22.8263107,22.8333333 22.2666667,22.2736893 22.2666667,21.5833333 C22.2666667,20.8929774 22.8263107,20.3333333 23.5166667,20.3333333 C24.2070226,20.3333333 24.7666667,20.8929774 24.7666667,21.5833333 C24.7666667,22.2736893 24.2070226,22.8333333 23.5166667,22.8333333 Z" id="Shape"></path>
                </g>
            </g>
        </g>
    </g>
</svg>